<svg xmlns="http://www.w3.org/2000/svg" viewBox="0 0 416.93 99.65"><title>logo</title><ellipse cx="50.34" cy="49.41" rx="49.36" ry="49.41" fill="#fff"/><path d="M10.45,45.17,6,48.26l3,.16a1.44,1.44,0,0,0,.85-.12.93.93,0,0,0,.33-.79h.19l-.12,2.23H10a1.71,1.71,0,0,0-.11-.58.69.69,0,0,0-.28-.25,2.14,2.14,0,0,0-.69-.12l-5.75-.32V48.3l6-4.24L4.8,43.81A1,1,0,0,0,4,44a.94.94,0,0,0-.24.6v.16H3.54l.13-2.4h.18a1.07,1.07,0,0,0,.2.79,1.08,1.08,0,0,0,.77.26l4.88.28.19-.13a1.67,1.67,0,0,0,.38-.36,1.23,1.23,0,0,0,.12-.47h.19Z"/><path d="M4.3,52.77a2.37,2.37,0,0,1-.89-1.46.91.91,0,0,1,.21-.68.93.93,0,0,1,.65-.32,1.34,1.34,0,0,1,1,.37,8.54,8.54,0,0,1,1.31,1.9l.48,0a2.12,2.12,0,0,0,.67-.12A.51.51,0,0,0,8,52.19a.69.69,0,0,0,.08-.37.9.9,0,0,0-.19-.52.27.27,0,0,0-.23-.11c-.07,0-.15.06-.25.16a.65.65,0,0,1-.41.22.56.56,0,0,1-.44-.14A.71.71,0,0,1,6.33,51a.72.72,0,0,1,.15-.54.61.61,0,0,1,.44-.25,1.07,1.07,0,0,1,.72.22,1.71,1.71,0,0,1,.57.75,3.07,3.07,0,0,1,.27,1,1.76,1.76,0,0,1-.21,1.07,1.37,1.37,0,0,1-.58.55,4,4,0,0,1-1,.15l-1.85.16a2.11,2.11,0,0,0-.4.06.19.19,0,0,0-.12.09.11.11,0,0,0,0,.11c0,.09.07.17.2.25l-.11.16a1.67,1.67,0,0,1-.58-.47,1.09,1.09,0,0,1-.22-.59,1,1,0,0,1,.14-.64A.91.91,0,0,1,4.3,52.77Zm.37,0,1.59-.13a2.85,2.85,0,0,0-.84-.83.91.91,0,0,0-.57-.15.57.57,0,0,0-.4.2.44.44,0,0,0-.11.36A.92.92,0,0,0,4.67,52.74Z"/><path d="M10.61,56.15l-1.72.31.18,1.09-.49.09-.19-1.09-2.9.52A2.46,2.46,0,0,0,5,57.2a.4.4,0,0,0-.17.17.33.33,0,0,0,0,.18c0,.21.24.39.6.52l-.08.16a1.35,1.35,0,0,1-1.19-1.12,1.14,1.14,0,0,1,.12-.78,1.28,1.28,0,0,1,.49-.49,5.63,5.63,0,0,1,.92-.21l2.54-.46-.1-.6.17,0a6.25,6.25,0,0,0,1.12.88,5.75,5.75,0,0,0,1.23.57Z"/><path d="M9.54,59.45l-3.67.92a1.1,1.1,0,0,0-.6.27.56.56,0,0,0-.06.47l-.18,0-.58-2.45.18-.05a.6.6,0,0,0,.29.4A1.09,1.09,0,0,0,5.54,59l2.71-.68a1.1,1.1,0,0,0,.6-.27.61.61,0,0,0,.05-.47l.19,0Zm2.08-1.24a.73.73,0,0,1-.1.59.79.79,0,0,1-.49.35.76.76,0,0,1-.59-.08.72.72,0,0,1-.35-.48.7.7,0,0,1,.1-.58.76.76,0,0,1,.48-.36.83.83,0,0,1,.6.08A.75.75,0,0,1,11.62,58.21Z"/><path d="M10.48,62.17a2.15,2.15,0,0,1,0,1.18,2.11,2.11,0,0,1-.62,1.05,3.12,3.12,0,0,1-1.14.68A2.69,2.69,0,0,1,7,65.16,2,2,0,0,1,5.7,63.83a1.92,1.92,0,0,1,.21-1.78,2.81,2.81,0,0,1,1.48-1.11,2.8,2.8,0,0,1,1.87,0A1.87,1.87,0,0,1,10.48,62.17Zm-.34.14A.55.55,0,0,0,9.82,62,1.31,1.31,0,0,0,9,62c-.37.09-.89.25-1.54.47a6.81,6.81,0,0,0-.94.4,1,1,0,0,0-.45.4.56.56,0,0,0,0,.45.57.57,0,0,0,.24.32.94.94,0,0,0,.54.09,13.64,13.64,0,0,0,1.88-.55,5.15,5.15,0,0,0,1.1-.48,1,1,0,0,0,.36-.42A.47.47,0,0,0,10.14,62.31Z"/><path d="M12,66.4l-.55.27a2.78,2.78,0,0,1,.81.37,1.48,1.48,0,0,1,.46.56,1.19,1.19,0,0,1,.08.8,1.29,1.29,0,0,1-.41.64,5.3,5.3,0,0,1-1,.56l-1.67.81a1.67,1.67,0,0,0-.58.39.59.59,0,0,0,0,.45L9,71.33,8,69.19l.17-.08a.44.44,0,0,0,.36.24,1.57,1.57,0,0,0,.6-.2L11,68.22a3.91,3.91,0,0,0,.65-.36.51.51,0,0,0,.15-.25.36.36,0,0,0,0-.25q-.18-.39-.9-.45L8.59,68a1.56,1.56,0,0,0-.57.38.52.52,0,0,0,0,.41l-.16.08-1-2.14L7,66.68a.6.6,0,0,0,.36.3A1.66,1.66,0,0,0,8,66.76l2.42-1.18A1.29,1.29,0,0,0,11,65.2a.57.57,0,0,0,0-.44l.17-.09Z"/><path d="M11.35,73.91A2.43,2.43,0,0,1,9.9,73a.94.94,0,0,1-.12-.71.92.92,0,0,1,.43-.59,1.31,1.31,0,0,1,1.07-.14,8.54,8.54,0,0,1,2,1.07l.4-.26a2.22,2.22,0,0,0,.54-.41.64.64,0,0,0,.1-.32.71.71,0,0,0-.1-.37.9.9,0,0,0-.41-.37.25.25,0,0,0-.25,0,.46.46,0,0,0-.14.26.69.69,0,0,1-.26.39.57.57,0,0,1-.46.07.59.59,0,0,1-.39-.31.72.72,0,0,1-.11-.55.6.6,0,0,1,.27-.43,1.06,1.06,0,0,1,.74-.13,1.78,1.78,0,0,1,.84.39,3.2,3.2,0,0,1,.7.81,1.68,1.68,0,0,1,.31,1,1.44,1.44,0,0,1-.26.77,4.68,4.68,0,0,1-.8.59l-1.55,1a1.68,1.68,0,0,0-.34.25.25.25,0,0,0-.06.13.17.17,0,0,0,0,.12.38.38,0,0,0,.3.12l0,.2a1.9,1.9,0,0,1-.74-.15,1.15,1.15,0,0,1-.46-.42,1,1,0,0,1-.16-.64A.87.87,0,0,1,11.35,73.91Zm.32-.21L13,72.84a2.92,2.92,0,0,0-1.12-.35,1,1,0,0,0-.57.14.6.6,0,0,0-.26.36.44.44,0,0,0,.06.38A.93.93,0,0,0,11.67,73.7Z"/><path d="M18.76,73.7l-4.69,3.63c-.27.21-.42.37-.45.49a.63.63,0,0,0,.14.46l-.14.11-1.5-2,.15-.11a.61.61,0,0,0,.42.26,1.29,1.29,0,0,0,.55-.3l3.91-3c.26-.2.41-.36.44-.48a.63.63,0,0,0-.14-.46l.15-.11Z"/><path d="M21.64,77.29l2.63,2.31-.12.14L24,79.63a1.19,1.19,0,0,0-.46-.3.5.5,0,0,0-.3,0,2.5,2.5,0,0,0-.52.53l-2.17,2.61a3.53,3.53,0,0,0-.69,1,1.22,1.22,0,0,0,0,.68,1.53,1.53,0,0,0,.47.67,1.62,1.62,0,0,0,.87.43,1.52,1.52,0,0,0,.88-.16,4.38,4.38,0,0,0,1.13-1.06l1.81-2.17a1.66,1.66,0,0,0,.35-.58.58.58,0,0,0,0-.37,1.64,1.64,0,0,0-.4-.5l.12-.15,1.76,1.54-.13.15-.1-.09a.91.91,0,0,0-.43-.23.66.66,0,0,0-.43.09,1.89,1.89,0,0,0-.43.41l-1.68,2a7.17,7.17,0,0,1-1.24,1.25,2,2,0,0,1-1.22.26A2.67,2.67,0,0,1,19.68,85a3,3,0,0,1-.86-1.08,2.09,2.09,0,0,1-.16-1.25,2.94,2.94,0,0,1,.68-1.23l2.16-2.61a2.53,2.53,0,0,0,.43-.61.53.53,0,0,0,0-.33,1.19,1.19,0,0,0-.39-.45Z"/><path d="M27.31,84.64l-.32.52a3,3,0,0,1,.88-.12,1.45,1.45,0,0,1,.69.23,1.14,1.14,0,0,1,.5.63,1.4,1.4,0,0,1,0,.76,5.06,5.06,0,0,1-.52,1l-1,1.59a1.37,1.37,0,0,0-.27.64c0,.11.09.23.25.36l-.1.16-2-1.28.1-.16A.47.47,0,0,0,26,89a1.59,1.59,0,0,0,.4-.5l1.11-1.81a3.35,3.35,0,0,0,.34-.66.48.48,0,0,0,0-.29.43.43,0,0,0-.15-.2,1,1,0,0,0-1,.11l-1.34,2.18a1.65,1.65,0,0,0-.27.64.53.53,0,0,0,.21.34l-.09.16-2-1.28.1-.15a.58.58,0,0,0,.45.06,1.49,1.49,0,0,0,.42-.52l1.41-2.3a1.69,1.69,0,0,0,.27-.63.62.62,0,0,0-.26-.37l.1-.16Z"/><path d="M31.86,87.27l-1.67,3.39a1.25,1.25,0,0,0-.18.64c0,.12.14.23.33.35l-.08.16L28,90.65l.08-.16a.62.62,0,0,0,.49.05A1.17,1.17,0,0,0,29,90l1.23-2.5a1.24,1.24,0,0,0,.19-.63.63.63,0,0,0-.33-.35l.09-.17Zm.4-2.4a.78.78,0,0,1,.39.46.86.86,0,0,1,0,.61.79.79,0,0,1-.45.39.73.73,0,0,1-.58,0,.79.79,0,0,1-.34-1.06.74.74,0,0,1,.45-.4A.69.69,0,0,1,32.26,84.87Z"/><path d="M32.63,93l-.11-4a3.88,3.88,0,0,0-.1-1,.7.7,0,0,0-.25-.3l.07-.17,2.29.94-.07.17a.45.45,0,0,0-.33,0,.33.33,0,0,0-.2.2,2.21,2.21,0,0,0-.06.75l.06,2,1.13-1.21a2.91,2.91,0,0,0,.59-.77.36.36,0,0,0,0-.29.71.71,0,0,0-.33-.25l.07-.18,1.41.58-.07.18a.58.58,0,0,0-.39,0,2.93,2.93,0,0,0-.68.6l-2.8,2.9Z"/><path d="M40.12,92.63l-2.46-.71a2.54,2.54,0,0,0,.08,1.59,1.07,1.07,0,0,0,.68.64.92.92,0,0,0,.57,0,2.1,2.1,0,0,0,.67-.45l.13.16a3,3,0,0,1-1.1.85,1.82,1.82,0,0,1-1.11,0,1.79,1.79,0,0,1-1.29-1.22,2.94,2.94,0,0,1,0-1.69,2.69,2.69,0,0,1,1.11-1.66A1.89,1.89,0,0,1,39,89.86a1.6,1.6,0,0,1,1,.91A2.79,2.79,0,0,1,40.12,92.63ZM39,92a4.61,4.61,0,0,0,.21-1.11,1,1,0,0,0-.14-.53.43.43,0,0,0-.24-.16.5.5,0,0,0-.48.13,2.37,2.37,0,0,0-.61,1.13l0,.17Z"/><path d="M42.88,90.89,42.7,92a3.14,3.14,0,0,1,1-.82,1.24,1.24,0,0,1,.7-.13.59.59,0,0,1,.41.26.65.65,0,0,1,.08.51.79.79,0,0,1-.24.5.51.51,0,0,1-.42.12.7.7,0,0,1-.42-.25,1.52,1.52,0,0,0-.2-.23.14.14,0,0,0-.1,0,.38.38,0,0,0-.29.06,1,1,0,0,0-.39.43,3.7,3.7,0,0,0-.34,1.05l-.18,1.08-.05.29a1,1,0,0,0,0,.37.39.39,0,0,0,.14.23.87.87,0,0,0,.37.15l0,.18-2.48-.44,0-.18a.56.56,0,0,0,.44-.1,1.72,1.72,0,0,0,.23-.74l.44-2.6a2,2,0,0,0,0-.52.38.38,0,0,0-.11-.23.63.63,0,0,0-.31-.15l0-.19Z"/><path d="M48.06,91.35,48,93h-.17a2.6,2.6,0,0,0-.55-1,1.06,1.06,0,0,0-.63-.32.49.49,0,0,0-.36.12.44.44,0,0,0-.17.31.47.47,0,0,0,.08.27,5.2,5.2,0,0,0,.84.79,3.62,3.62,0,0,1,.89.93,1.42,1.42,0,0,1,.18.81,1.86,1.86,0,0,1-.26.77,1.4,1.4,0,0,1-.59.54,1.55,1.55,0,0,1-.8.14A2.75,2.75,0,0,1,45.6,96a.52.52,0,0,0-.2-.07c-.11,0-.21.06-.29.23l-.17,0L45,94.44h.17a2.25,2.25,0,0,0,.53,1.06,1.19,1.19,0,0,0,.71.39.49.49,0,0,0,.41-.12.57.57,0,0,0,.18-.35.64.64,0,0,0-.12-.43,3.73,3.73,0,0,0-.63-.6,5.55,5.55,0,0,1-.92-.9,1.41,1.41,0,0,1-.25-1,1.47,1.47,0,0,1,.44-1,1.3,1.3,0,0,1,1.11-.36,1.45,1.45,0,0,1,.71.25.73.73,0,0,0,.22.09.26.26,0,0,0,.14,0,.92.92,0,0,0,.19-.2Z"/><path d="M50.67,91.52v3.79a1.16,1.16,0,0,0,.11.65.63.63,0,0,0,.45.16v.19l-2.52,0v-.19a.59.59,0,0,0,.46-.17,1.16,1.16,0,0,0,.1-.63V92.5a1.24,1.24,0,0,0-.11-.65.63.63,0,0,0-.45-.17v-.19ZM50,89.2a.72.72,0,0,1,.55.24.8.8,0,0,1,.23.56.77.77,0,0,1-.23.56.75.75,0,0,1-.55.22.79.79,0,0,1-.54-.24.74.74,0,0,1-.22-.56.76.76,0,0,1,.22-.56A.73.73,0,0,1,50,89.2Z"/><path d="M53,89.66l.11,1.74,1.1-.07,0,.51-1.1.06.17,2.94a2.34,2.34,0,0,0,.07.53.36.36,0,0,0,.15.19.21.21,0,0,0,.17.06c.22,0,.41-.19.59-.54l.15.1a1.35,1.35,0,0,1-1.25,1.06A1.17,1.17,0,0,1,52,95.5a5.15,5.15,0,0,1-.1-.94L51.75,92l-.6,0,0-.18a6.46,6.46,0,0,0,1-1,5.9,5.9,0,0,0,.71-1.16Z"/><path d="M57.22,95.92l-2-3.26a4.13,4.13,0,0,0-.64-.89.91.91,0,0,0-.42-.2l0-.18L56.54,91l0,.18a.63.63,0,0,0-.32.15.29.29,0,0,0-.07.23,2.64,2.64,0,0,0,.36.71L57.61,94l.32-1.51a3.61,3.61,0,0,0,.13-1.11.36.36,0,0,0-.17-.27.64.64,0,0,0-.44-.06l0-.18L59,90.61l0,.19a.6.6,0,0,0-.34.23,4.56,4.56,0,0,0-.32,1.13l-.78,3.71a8.23,8.23,0,0,1-.49,1.73,1.06,1.06,0,0,1-.79.56.93.93,0,0,1-.7-.14.79.79,0,0,1-.34-.53.72.72,0,0,1,.1-.51.54.54,0,0,1,.4-.26.53.53,0,0,1,.43.09.77.77,0,0,1,.23.48.49.49,0,0,0,.08.24.16.16,0,0,0,.12,0,.4.4,0,0,0,.23-.19,3.23,3.23,0,0,0,.31-1Z"/><path d="M65.37,88.38a2.09,2.09,0,0,1,1.16-.12,2,2,0,0,1,1.07.55,3,3,0,0,1,.72,1.11,2.84,2.84,0,0,1,.14,1.78,2,2,0,0,1-1.26,1.4,1.87,1.87,0,0,1-1.77-.1,2.78,2.78,0,0,1-1.16-1.42,2.9,2.9,0,0,1-.1-1.88A1.91,1.91,0,0,1,65.37,88.38Zm.15.33a.62.62,0,0,0-.34.35,1.53,1.53,0,0,0,.06.82,16.06,16.06,0,0,0,.53,1.52,6.68,6.68,0,0,0,.43.93,1,1,0,0,0,.41.42.55.55,0,0,0,.45,0,.6.6,0,0,0,.3-.26.91.91,0,0,0,.07-.55,13.07,13.07,0,0,0-.61-1.87A4.91,4.91,0,0,0,66.3,89a.91.91,0,0,0-.43-.33A.48.48,0,0,0,65.52,88.71Z"/><path d="M69.83,87l1.47,3c.15.28.26.45.36.49a.66.66,0,0,0,.6-.12l.08.17L69.9,91.77l-.08-.16a1,1,0,0,0,.37-.28.38.38,0,0,0,.07-.25,1.86,1.86,0,0,0-.18-.48l-1.47-3-.6.31-.22-.45.6-.31-.16-.32-.11-.21A1.65,1.65,0,0,1,68,85.31a2.07,2.07,0,0,1,1-1.1A1.41,1.41,0,0,1,70,84a.65.65,0,0,1,.49.33.52.52,0,0,1,0,.44.68.68,0,0,1-.35.38.57.57,0,0,1-.43.06.38.38,0,0,1-.27-.2l-.06-.18a.75.75,0,0,0,0-.16.2.2,0,0,0-.13-.11.24.24,0,0,0-.2,0,.29.29,0,0,0-.16.22.67.67,0,0,0,.09.4l.4.79.27.55.61-.32.22.45Z"/><path d="M77.62,81.54l3.73.79a3.74,3.74,0,0,0,1.21.1,1,1,0,0,0,.53-.24l.12.15-2.66,2.31-.12-.15a1.07,1.07,0,0,0,.26-.36.24.24,0,0,0,0-.21,1.79,1.79,0,0,0-.86-.32l-2.44-.53,0,.33,1.2,1.46a2.25,2.25,0,0,0,.47.48.49.49,0,0,0,.32,0,1.1,1.1,0,0,0,.47-.28l.12.15L77.3,87.48l-.12-.15.17-.15a1,1,0,0,0,.29-.39.5.5,0,0,0,0-.32,1.92,1.92,0,0,0-.37-.53l-2.89-3.52a2.58,2.58,0,0,0-.47-.48.52.52,0,0,0-.31,0,.92.92,0,0,0-.41.22l-.17.15-.12-.15,2.54-2.21.12.15a1.16,1.16,0,0,0-.33.42.58.58,0,0,0,0,.32,2.6,2.6,0,0,0,.37.55L77,83l.57-3.25c.08-.45.07-.75,0-.88a.36.36,0,0,0-.36-.1,1.78,1.78,0,0,0-.46.3L76.55,79l2-1.73.12.14a1.5,1.5,0,0,0-.33.47A7.89,7.89,0,0,0,78.08,79Z"/><path d="M84.7,79.4a2.53,2.53,0,0,1-.43,1.68.85.85,0,0,1-.63.32.84.84,0,0,1-.67-.25,1.33,1.33,0,0,1-.43-1,8.77,8.77,0,0,1,.44-2.3l-.36-.32a2,2,0,0,0-.54-.41.44.44,0,0,0-.32,0,.58.58,0,0,0-.31.2.93.93,0,0,0-.24.5.26.26,0,0,0,.07.24.44.44,0,0,0,.29.08.64.64,0,0,1,.44.14.6.6,0,0,1,.2.42.76.76,0,0,1-.18.48.74.74,0,0,1-.49.27.58.58,0,0,1-.48-.15,1.07,1.07,0,0,1-.33-.68,1.81,1.81,0,0,1,.14-1,3.21,3.21,0,0,1,.55-.92,1.69,1.69,0,0,1,.9-.6,1.29,1.29,0,0,1,.79,0,3.76,3.76,0,0,1,.78.61L85.26,78a2.18,2.18,0,0,0,.32.26.25.25,0,0,0,.14,0,.13.13,0,0,0,.11-.06c.06-.06.07-.17,0-.32l.19,0a1.89,1.89,0,0,1,.07.76,1.08,1.08,0,0,1-.27.57.85.85,0,0,1-.55.34A.81.81,0,0,1,84.7,79.4Zm-.28-.25-1.19-1.07a3.23,3.23,0,0,0,0,1.2,1,1,0,0,0,.29.52.57.57,0,0,0,.41.16.43.43,0,0,0,.33-.18A.93.93,0,0,0,84.42,79.15Z"/><path d="M84.23,73.08a2.07,2.07,0,0,1,.9-.75,2,2,0,0,1,1.19-.12,3.05,3.05,0,0,1,1.2.53,2.89,2.89,0,0,1,1.1,1.41A2,2,0,0,1,88.35,76a1.88,1.88,0,0,1-1.53.9,2.79,2.79,0,0,1-1.74-.55A2.9,2.9,0,0,1,84,74.84,1.9,1.9,0,0,1,84.23,73.08Zm.3.2a.59.59,0,0,0-.08.47,1.32,1.32,0,0,0,.49.65,15.73,15.73,0,0,0,1.28,1,6.86,6.86,0,0,0,.87.54.92.92,0,0,0,.58.12.53.53,0,0,0,.38-.22.57.57,0,0,0,.11-.39.89.89,0,0,0-.25-.49,10.88,10.88,0,0,0-1.54-1.23,5.19,5.19,0,0,0-1-.62.94.94,0,0,0-.54,0A.49.49,0,0,0,84.53,73.28Z"/><path d="M84.79,68.31l2.42,1.33a2.74,2.74,0,0,1-.19-.9,1.35,1.35,0,0,1,.16-.67,1.07,1.07,0,0,1,.57-.54,1.14,1.14,0,0,1,.72-.08,4.32,4.32,0,0,1,1.06.47l1.64.89a1.46,1.46,0,0,0,.64.25.59.59,0,0,0,.34-.28l.16.09L91.21,71l-.16-.09a.54.54,0,0,0,0-.43,1.6,1.6,0,0,0-.53-.39l-1.87-1a3.37,3.37,0,0,0-.67-.32.44.44,0,0,0-.28,0,.37.37,0,0,0-.18.17.72.72,0,0,0-.06.42,2.45,2.45,0,0,0,.24.6L90,71.15a1.65,1.65,0,0,0,.59.24.48.48,0,0,0,.37-.24l.16.09L90,73.33l-.16-.09a.58.58,0,0,0,0-.46,1.37,1.37,0,0,0-.54-.39l-4.25-2.34a1.53,1.53,0,0,0-.64-.24.59.59,0,0,0-.34.28L83.91,70Z"/><path d="M89.18,63.46l1.53.56-.06.15a2.55,2.55,0,0,0-1.15.21,1,1,0,0,0-.48.5.5.5,0,0,0,0,.38.44.44,0,0,0,.24.26.47.47,0,0,0,.29,0,5.56,5.56,0,0,0,1-.55,3.4,3.4,0,0,1,1.15-.57,1.46,1.46,0,0,1,.82.09,1.75,1.75,0,0,1,.65.48,1.52,1.52,0,0,1,.34.74,1.57,1.57,0,0,1-.1.8,2.75,2.75,0,0,1-.53.75,1.54,1.54,0,0,0-.13.17c0,.1,0,.22.14.35l-.06.16-1.62-.59.07-.16A2.1,2.1,0,0,0,92.43,67a1.17,1.17,0,0,0,.58-.56A.51.51,0,0,0,93,66a.46.46,0,0,0-.28-.28.61.61,0,0,0-.44,0,4,4,0,0,0-.75.42,4.72,4.72,0,0,1-1.13.59,1.41,1.41,0,0,1-1,0,1.52,1.52,0,0,1-.78-.72,1.35,1.35,0,0,1,0-1.18,1.51,1.51,0,0,1,.44-.6.79.79,0,0,0,.16-.18.26.26,0,0,0,0-.15,1,1,0,0,0-.13-.24Z"/><path d="M87.67,61a.79.79,0,0,1,.39-.45.83.83,0,0,1,.6,0,.76.76,0,0,1,.46.4.72.72,0,0,1,0,.59.74.74,0,0,1-.38.45.78.78,0,0,1-.6,0,.81.81,0,0,1-.46-.39A.76.76,0,0,1,87.67,61Zm2.41.07,3.59,1.19a1.17,1.17,0,0,0,.65.1c.11,0,.2-.17.28-.38l.18.06L94,64.48l-.18-.06a.58.58,0,0,0,0-.49,1.2,1.2,0,0,0-.56-.3l-2.65-.88a1.11,1.11,0,0,0-.64-.09c-.12,0-.21.17-.29.37L89.49,63Z"/><path d="M91.3,56.06l3.64.85a1.48,1.48,0,0,0,.68.06.62.62,0,0,0,.26-.36l.17,0-.4,1.86L95,58.36a2.6,2.6,0,0,1,.43.79,1.43,1.43,0,0,1,0,.77,1,1,0,0,1-.39.63,1.07,1.07,0,0,1-.65.27,4.08,4.08,0,0,1-1.15-.16l-1.85-.43a1.27,1.27,0,0,0-.67,0,.56.56,0,0,0-.26.36l-.18,0,.4-1.85,3.18.74a3,3,0,0,0,.65.1.38.38,0,0,0,.25-.1.33.33,0,0,0,.13-.21.56.56,0,0,0,0-.34,1.81,1.81,0,0,0-.42-.59L92,57.66a1.3,1.3,0,0,0-.68,0,.56.56,0,0,0-.26.35l-.18,0Z"/><path d="M91.63,53.34l.62.06a2.93,2.93,0,0,1-.51-.75,1.48,1.48,0,0,1-.12-.72,1.1,1.1,0,0,1,.33-.72,1.26,1.26,0,0,1,.68-.34,5.13,5.13,0,0,1,1.12,0l1.85.18a1.52,1.52,0,0,0,.69,0,.64.64,0,0,0,.21-.39l.18,0L96.46,53h-.19a.49.49,0,0,0-.18-.4,1.46,1.46,0,0,0-.63-.15l-2.11-.21a3.47,3.47,0,0,0-.74,0,.43.43,0,0,0-.25.13.38.38,0,0,0-.11.23c0,.28.16.57.55.85l2.55.26a1.31,1.31,0,0,0,.68,0,.52.52,0,0,0,.22-.34l.18,0-.22,2.35-.19,0a.57.57,0,0,0-.15-.44,1.6,1.6,0,0,0-.65-.15l-2.69-.27a1.31,1.31,0,0,0-.68,0,.59.59,0,0,0-.21.39l-.18,0Z"/><path d="M91.92,46.93l0-1.57.56,0,0,.9a1.45,1.45,0,0,1,.45-.35,1.25,1.25,0,0,1,.57-.13,1.42,1.42,0,0,1,.89.26,1.73,1.73,0,0,1,.61.74,2.1,2.1,0,0,1,.22.84s0,.22,0,.6a.47.47,0,0,0,.16.37.45.45,0,0,0,.36.14.39.39,0,0,0,.3-.14.74.74,0,0,0,.11-.45l0-.86a3.16,3.16,0,0,1,.21-1.45,1.1,1.1,0,0,1,1-.58,1.35,1.35,0,0,1,.8.25,1.47,1.47,0,0,1,.53.67,3.89,3.89,0,0,1,.28,1.47,5.13,5.13,0,0,1-.1,1.15,1.54,1.54,0,0,1-.34.75.65.65,0,0,1-.46.24.61.61,0,0,1-.42-.17,1.3,1.3,0,0,1-.33-.63,1,1,0,0,1-.9.66,1,1,0,0,1-.69-.25,2.09,2.09,0,0,1-.59-.82,2.07,2.07,0,0,1-.64,1,1.61,1.61,0,0,1-.94.32,1.59,1.59,0,0,1-1.22-.54,2,2,0,0,1-.54-1.42A2.4,2.4,0,0,1,91.92,46.93Zm.13.86a.6.6,0,0,0,.31.48,2.44,2.44,0,0,0,1.24.17,2,2,0,0,0,1-.21.59.59,0,0,0,.28-.48.58.58,0,0,0-.29-.49,2.07,2.07,0,0,0-1.1-.18,2.53,2.53,0,0,0-1.24.25A.52.52,0,0,0,92.05,47.79Zm5.31.18a1.81,1.81,0,0,0,.1.68.5.5,0,0,0,.44.27.56.56,0,0,0,.46-.3,2,2,0,0,0,.2-1.11,2.6,2.6,0,0,0-.21-1.09.6.6,0,0,0-.54-.39.33.33,0,0,0-.21.08.8.8,0,0,0-.21.41A12.2,12.2,0,0,0,97.36,48Z"/><ellipse cx="50.04" cy="48.54" rx="33.98" ry="34.02" fill="#fff"/><circle cx="9.3" cy="33.56" r="2.86" fill="#fabc01"/><circle cx="91.67" cy="33.56" r="2.86" fill="#fabc01"/><path d="M43.64,40.05c16.43-8.26,32.88-2.64,37.73,8.46a18.94,18.94,0,0,1,1.4,9.18A34,34,0,1,0,23.49,69.78,37.49,37.49,0,0,1,43.64,40.05Z" fill="#fabc01"/><path d="M163.2,65.61h-5.44V62.37H119v3.09h-5.32V12.37H163.2Zm-5.44-8.08V17.15H119V57.53Zm-2-23.41H121V30.34h14.85V28.25H123.45V19.14h29.86v9.11H141v2.09h14.76ZM154,55.51H122.75V36.17H154Zm-5.2-3.66v-12H128v12ZM147.92,25V22.47H128.77V25Zm-2.36,25H131.25V41.8h14.31Zm-4.66-3V44.77h-5v2.17Z"/><path d="M227.22,44.34h-54v-4h24.17V37.54H178V33.69h19.39V31H179V27.37h18.46v-2.9h-24.3V20.56h24.3V18H179v-3.9h18.46V11.31h5.44v2.75H222v6.5h5.15v3.91H222V31H202.86v2.66h19.7v3.85h-19.7v2.78h24.36Zm-5.63,21.18H216V64h-31.4v1.54H179V46.94h42.63Zm-5.6-12V50.73h-31.4v2.78Zm0,6.56V57.23h-31.4v2.84Zm.58-39.51V18H202.86v2.6Zm0,6.81v-2.9H202.86v2.9Z"/><path d="M289.72,30.21l-2.6,5a41,41,0,0,1-5.39-1.55v23.3H255.59L258.25,60a79.72,79.72,0,0,1-20.63,6L235,61a72.66,72.66,0,0,0,16.91-4.08h-9.1V33.51h11.7l-2.36-3.42Q263,27.35,268.3,20.44l5.63,1.24a9.56,9.56,0,0,1-1.37,2.09Q279.16,28,289.72,30.21Zm-36.25-1.72h-18V23.41h18Zm-.54-9.86H236.26v-5h16.67Zm23.23,21.45V37.9H248.54v2.18Zm0,6.32V44.1H248.54v2.3Zm0,6.44V50.42H248.54v2.42Zm12.47-33.52a69.67,69.67,0,0,1-5.42,6.93l-4.69-2.78q.8-.91,3.33-4.15H262.34a49,49,0,0,1-5.45,5.45l-4.2-3.6a37.1,37.1,0,0,0,9.23-10.53L267,12.37a5.85,5.85,0,0,1-1.18,2.17h22.81Zm-7.5,14.19a49,49,0,0,1-12.11-6,32.73,32.73,0,0,1-10.07,6Zm8.22,27.93-3,4.78a96.22,96.22,0,0,0-18.15-3.79l2.84-4.66A79.42,79.42,0,0,1,289.35,61.44Z"/><path d="M317.31,21.59H297.22v-5h7.93a21.25,21.25,0,0,0-2-3.84l5.45-2.06a55.15,55.15,0,0,1,2.72,5.9h6ZM316,30.79H298.7v-5H316Zm0,9.05H298.7V34.93H316ZM316,64h-5.45V61.19h-6.5v4.27H298.7V44H316Zm-5.45-7.87v-7h-6.5v7ZM351.89,51a42.74,42.74,0,0,1-1.68,8.82q-1.26,4-2.42,5a4,4,0,0,1-2.68,1,4.29,4.29,0,0,1-3.19-1.4q-1.35-1.41-2.57-8.31a71.34,71.34,0,0,1-1.23-12.4V17.84h-8.38v16.7h6.66V39.9h-6.66V65.52h-5.32V39.9h-5.75V34.54h5.75V17.84h-5v-5.2h24.05V44.92a48.53,48.53,0,0,0,2,13.91,52.93,52.93,0,0,0,1.49-10.89Z"/><path d="M383.41,20.93l-2.9,4.38A26.19,26.19,0,0,0,377.33,22v4H365.86V23.59a41.38,41.38,0,0,1-5.74,4.2l-1.55-5.5a41,41,0,0,0,12.32-11.83l5,1.78a5.08,5.08,0,0,1-.91,1.37A60.86,60.86,0,0,1,383.41,20.93ZM383,61.56l-4.9,2.54a27.57,27.57,0,0,0-1.43-3.91,93.77,93.77,0,0,1-14.31,5.09l-1.48-4.69A2.64,2.64,0,0,0,362,58.41V28.73h18.91V48.94H367.25v9.41a52.4,52.4,0,0,0,7.11-2.84,15.49,15.49,0,0,0-1.78-3.36l4.75-2.24A58.4,58.4,0,0,1,383,61.56Zm-7.14-25V33.39h-8.6v3.15Zm0,7.74V40.5h-8.6v3.78Zm.94-22.81a56.32,56.32,0,0,0-4.85-4,39.9,39.9,0,0,1-3.78,4Zm35.94,7.14h-3.48V42.38h-17v4.2h19.15V62.8H392.21v2.66h-5.44V28.61h-2.66v-11h11.07a38.58,38.58,0,0,0-2.48-5.45l5.59-1.54a45.27,45.27,0,0,1,2.85,7h11.59Zm-5.39-1.48V22.41H389.61v4.72ZM403.8,37.54v-5.6H392.21v5.6ZM406,58V51.54H392.21V58Z"/><path d="M117.62,87.1H109.1V71.48h2.42V85h6.1Z"/><path d="M119.38,72.11a1.29,1.29,0,0,1,.4-1,1.46,1.46,0,0,1,1-.39,1.49,1.49,0,0,1,1,.39,1.27,1.27,0,0,1,.42,1,1.26,1.26,0,0,1-.42,1,1.49,1.49,0,0,1-1,.39,1.44,1.44,0,0,1-1-.39A1.28,1.28,0,0,1,119.38,72.11Zm.23,15V75.94H122V87.1Z"/><path d="M127.68,85.59V87.1h-2.37V70.59h2.37V77.8h0a4.18,4.18,0,0,1,3.78-2.12,4.07,4.07,0,0,1,3.33,1.49,6.17,6.17,0,0,1,1.21,4,6.86,6.86,0,0,1-1.37,4.47A4.51,4.51,0,0,1,131,87.36a3.6,3.6,0,0,1-3.26-1.77Zm0-3.15a3,3,0,0,0,.82,2.15,2.65,2.65,0,0,0,2,.87,2.69,2.69,0,0,0,2.3-1.13,5.35,5.35,0,0,0,.81-3.14,4.08,4.08,0,0,0-.77-2.65,2.54,2.54,0,0,0-2.1-1,2.87,2.87,0,0,0-2.21,1,3.57,3.57,0,0,0-.88,2.49Z"/><path d="M145,78.2a2.49,2.49,0,0,0-1.39-.34,2.15,2.15,0,0,0-1.86,1,4.49,4.49,0,0,0-.71,2.67V87.1h-2.37V75.94h2.37v2.22h0c.55-1.6,1.52-2.41,2.92-2.41a2.89,2.89,0,0,1,1,.14Z"/><path d="M147.1,76.69a7.6,7.6,0,0,1,3.94-1c2.82,0,4.22,1.46,4.22,4.37v7H153V85.4h-.05a3.68,3.68,0,0,1-3.39,2,3.64,3.64,0,0,1-2.59-.89,3.12,3.12,0,0,1-.94-2.39c0-2.1,1.24-3.32,3.74-3.67L153,80q0-2.49-2.19-2.49a5.88,5.88,0,0,0-3.69,1.3Zm3.42,5.22a3.21,3.21,0,0,0-1.71.62,1.67,1.67,0,0,0-.5,1.33,1.5,1.5,0,0,0,.53,1.2,2,2,0,0,0,1.37.47,2.58,2.58,0,0,0,2-.84,3,3,0,0,0,.79-2.12v-1Z"/><path d="M164.73,78.2a2.49,2.49,0,0,0-1.39-.34,2.18,2.18,0,0,0-1.86,1,4.56,4.56,0,0,0-.71,2.67V87.1H158.4V75.94h2.37v2.22h0c.55-1.6,1.53-2.41,2.93-2.41a2.87,2.87,0,0,1,1,.14Z"/><path d="M176.94,75.94,172,88.57q-1.46,3.77-4.23,3.77a4.56,4.56,0,0,1-1.47-.19v-2a2.84,2.84,0,0,0,1.21.26,2.08,2.08,0,0,0,2-1.48l.78-1.85-4.42-11.14h2.64l2.68,8a9.17,9.17,0,0,1,.26,1.07h0a7.33,7.33,0,0,1,.27-1l2.8-8Z"/><path d="M184.1,76.69a7.6,7.6,0,0,1,3.94-1c2.82,0,4.22,1.46,4.22,4.37v7H190V85.4h-.05a4,4,0,0,1-6,1.07,3.12,3.12,0,0,1-.94-2.39c0-2.1,1.24-3.32,3.74-3.67L190,80c0-1.66-.72-2.49-2.18-2.49a5.88,5.88,0,0,0-3.69,1.3Zm3.41,5.22a3.28,3.28,0,0,0-1.71.62,1.7,1.7,0,0,0-.49,1.33,1.5,1.5,0,0,0,.53,1.2,2,2,0,0,0,1.37.47,2.61,2.61,0,0,0,2-.84,3,3,0,0,0,.78-2.12v-1Z"/><path d="M205.19,87.1h-2.36V80.79q0-3.21-2.34-3.21a2.45,2.45,0,0,0-2,.89,3.35,3.35,0,0,0-.77,2.26V87.1H195.4V75.94h2.37v1.83h0a4,4,0,0,1,3.63-2.09q3.74,0,3.74,4.6Z"/><path d="M218.34,87.1H216V85.33h0a4,4,0,0,1-3.69,2,4.15,4.15,0,0,1-3.37-1.51,6.13,6.13,0,0,1-1.26-4.07A6.64,6.64,0,0,1,209,77.34a4.63,4.63,0,0,1,3.69-1.66,3.38,3.38,0,0,1,3.22,1.72h0V70.59h2.36ZM216,80.56a3,3,0,0,0-.82-2.13,2.88,2.88,0,0,0-4.31.25,4.76,4.76,0,0,0-.85,3,4.39,4.39,0,0,0,.8,2.77,2.62,2.62,0,0,0,2.17,1,2.69,2.69,0,0,0,2.17-1,3.83,3.83,0,0,0,.84-2.54Z"/><path d="M229.54,73.45h0V85.11h0v2h-2.41v-2h0V73.46h0v-2h2.41Z"/><path d="M243,87.1h-2.36V80.79q0-3.21-2.34-3.21a2.44,2.44,0,0,0-1.95.89,3.3,3.3,0,0,0-.77,2.26V87.1h-2.37V75.94h2.37v1.83h.05a4,4,0,0,1,3.63-2.09q3.73,0,3.74,4.6Z"/><path d="M252.25,72.52a2.9,2.9,0,0,0-1.22-.28c-1.19,0-1.79.73-1.79,2.17v1.53h2.58v1.88h-2.58V87.1h-2.36V77.82H245V75.94h1.9V74.29a3.71,3.71,0,0,1,3.91-4,4.32,4.32,0,0,1,1.46.2Z"/><path d="M252.93,81.62a5.92,5.92,0,0,1,1.57-4.35,5.72,5.72,0,0,1,4.27-1.59,5.32,5.32,0,0,1,4,1.54,5.84,5.84,0,0,1,1.49,4.22,5.92,5.92,0,0,1-1.57,4.3,5.52,5.52,0,0,1-4.17,1.62,5.46,5.46,0,0,1-4.09-1.56A5.74,5.74,0,0,1,252.93,81.62Zm2.41-.05a4.24,4.24,0,0,0,.89,2.86,3.05,3.05,0,0,0,2.43,1c2.14,0,3.22-1.32,3.22-4a4.5,4.5,0,0,0-.83-2.92,2.92,2.92,0,0,0-2.39-1,3,3,0,0,0-2.44,1.07A4.43,4.43,0,0,0,255.34,81.57Z"/><path d="M273.25,78.2a2.49,2.49,0,0,0-1.39-.34,2.15,2.15,0,0,0-1.86,1,4.49,4.49,0,0,0-.71,2.67V87.1h-2.37V75.94h2.37v2.22h0c.55-1.6,1.52-2.41,2.92-2.41a2.89,2.89,0,0,1,1,.14Z"/><path d="M291.52,87.1h-2.37V80.7a4.2,4.2,0,0,0-.53-2.39,2,2,0,0,0-1.71-.73,2.15,2.15,0,0,0-1.73.92,3.61,3.61,0,0,0-.73,2.27V87.1h-2.36V80.54c0-2-.75-3-2.27-3a2.15,2.15,0,0,0-1.74.89,3.78,3.78,0,0,0-.69,2.32V87.1H275V75.94h2.37V77.7h.05a3.85,3.85,0,0,1,3.51-2,3.12,3.12,0,0,1,3.18,2.23,4,4,0,0,1,3.73-2.23q3.66,0,3.66,4.53Z"/><path d="M294.93,76.69a7.64,7.64,0,0,1,3.95-1q4.22,0,4.22,4.37v7h-2.3V85.4h-.05a3.68,3.68,0,0,1-3.39,2,3.61,3.61,0,0,1-2.58-.89,3.13,3.13,0,0,1-.95-2.39q0-3.15,3.74-3.67l3.24-.44q0-2.49-2.19-2.49a5.88,5.88,0,0,0-3.69,1.3Zm3.42,5.22a3.21,3.21,0,0,0-1.71.62,1.7,1.7,0,0,0-.5,1.33,1.51,1.51,0,0,0,.54,1.2,2,2,0,0,0,1.37.47,2.58,2.58,0,0,0,2-.84,3,3,0,0,0,.79-2.12v-1Z"/><path d="M312,87a3.93,3.93,0,0,1-1.88.37q-3.18,0-3.18-3.45V77.82H305V75.94h1.88V73.33l2.36-.72v3.33H312v1.88h-2.7v5.67a2.4,2.4,0,0,0,.37,1.5,1.41,1.41,0,0,0,1.18.46,1.94,1.94,0,0,0,1.15-.36Z"/><path d="M313.94,72.11a1.3,1.3,0,0,1,.41-1,1.44,1.44,0,0,1,1-.39,1.48,1.48,0,0,1,1,.39,1.27,1.27,0,0,1,.42,1,1.26,1.26,0,0,1-.42,1,1.48,1.48,0,0,1-1,.39,1.45,1.45,0,0,1-1-.39A1.31,1.31,0,0,1,313.94,72.11Zm.23,15V75.94h2.37V87.1Z"/><path d="M319.16,81.62a6,6,0,0,1,1.57-4.35A5.73,5.73,0,0,1,325,75.68a5.34,5.34,0,0,1,4,1.54,6.73,6.73,0,0,1-.08,8.52,5.56,5.56,0,0,1-4.18,1.62,5.46,5.46,0,0,1-4.09-1.56A5.74,5.74,0,0,1,319.16,81.62Zm2.41-.05a4.19,4.19,0,0,0,.9,2.86,3,3,0,0,0,2.42,1q3.23,0,3.22-4a4.5,4.5,0,0,0-.83-2.92,2.92,2.92,0,0,0-2.39-1,3,3,0,0,0-2.44,1.07A4.48,4.48,0,0,0,321.57,81.57Z"/><path d="M342.94,87.1h-2.36V80.79q0-3.21-2.34-3.21a2.47,2.47,0,0,0-1.95.89,3.35,3.35,0,0,0-.77,2.26V87.1h-2.37V75.94h2.37v1.83h.05a4,4,0,0,1,3.63-2.09c2.5,0,3.74,1.53,3.74,4.6Z"/><path d="M362.35,86.48a9.53,9.53,0,0,1-4.36.88,7.17,7.17,0,0,1-5.43-2.13,7.83,7.83,0,0,1-2-5.64,8.32,8.32,0,0,1,2.26-6,7.7,7.7,0,0,1,5.83-2.37,9.64,9.64,0,0,1,3.74.63v2.45a7.32,7.32,0,0,0-3.66-.93A5.29,5.29,0,0,0,354.6,75a6.22,6.22,0,0,0-1.54,4.39,6.05,6.05,0,0,0,1.44,4.2,5,5,0,0,0,3.88,1.6,7.51,7.51,0,0,0,4-1Z"/><path d="M374.42,82.15h-7.66c.1,2.26,1.25,3.38,3.44,3.38a5.61,5.61,0,0,0,3.38-1.11v2a7.07,7.07,0,0,1-3.92,1,5.08,5.08,0,0,1-3.89-1.51,6.92,6.92,0,0,1,.11-8.49,4.85,4.85,0,0,1,3.78-1.68,4.44,4.44,0,0,1,3.51,1.43A5.72,5.72,0,0,1,374.42,81Zm-2.29-1.72a3.39,3.39,0,0,0-.66-2.2,2.27,2.27,0,0,0-1.84-.76,2.55,2.55,0,0,0-1.87.81,3.75,3.75,0,0,0-1,2.15Z"/><path d="M386.69,87.1h-2.36V80.79q0-3.21-2.34-3.21a2.44,2.44,0,0,0-1.95.89,3.3,3.3,0,0,0-.77,2.26V87.1H376.9V75.94h2.37v1.83h.05A4,4,0,0,1,383,75.68q3.74,0,3.74,4.6Z"/><path d="M395.55,87a3.93,3.93,0,0,1-1.88.37q-3.18,0-3.18-3.45V77.82H388.6V75.94h1.89V73.33l2.36-.72v3.33h2.7v1.88h-2.7v5.67a2.4,2.4,0,0,0,.37,1.5,1.41,1.41,0,0,0,1.18.46,1.94,1.94,0,0,0,1.15-.36Z"/><path d="M407,82.15h-7.67c.1,2.26,1.25,3.38,3.44,3.38a5.61,5.61,0,0,0,3.38-1.11v2a7,7,0,0,1-3.92,1,5.08,5.08,0,0,1-3.89-1.51,6,6,0,0,1-1.4-4.24,6.12,6.12,0,0,1,1.51-4.25,4.88,4.88,0,0,1,3.78-1.68,4.43,4.43,0,0,1,3.51,1.43A5.73,5.73,0,0,1,407,81Zm-2.3-1.72a3.39,3.39,0,0,0-.66-2.2,2.26,2.26,0,0,0-1.83-.76,2.55,2.55,0,0,0-1.88.81,3.75,3.75,0,0,0-1,2.15Z"/><path d="M415.75,78.2a2.49,2.49,0,0,0-1.39-.34,2.15,2.15,0,0,0-1.86,1,4.56,4.56,0,0,0-.71,2.67V87.1h-2.37V75.94h2.37v2.22h0c.55-1.6,1.52-2.41,2.92-2.41a2.89,2.89,0,0,1,1,.14Z"/><path d="M73.14,17a2.83,2.83,0,0,1-.61-.73,2.1,2.1,0,0,1-.23-1.1,3.38,3.38,0,0,0,0-.45c0-.55,0-1.11,0-1.66a.53.53,0,0,0-.13-.39.57.57,0,0,0-.56-.12,4.91,4.91,0,0,1-1,.07h0a1.74,1.74,0,0,1-.81-.12,2.49,2.49,0,0,1-.65-.22,3.1,3.1,0,0,0-.57-.3,5.18,5.18,0,0,1-.6-.26,1,1,0,0,1-.42-1.19.63.63,0,0,1,.2-.23.28.28,0,0,1,.4.1.32.32,0,0,1,.06.15.49.49,0,0,0,.32.36,3.24,3.24,0,0,0,.73.34,3.52,3.52,0,0,0,1.41,0c.14,0,.29,0,.44-.07a.82.82,0,0,0,.53-.32.28.28,0,0,0-.11-.4,9,9,0,0,1-.93-.58,1.63,1.63,0,0,1-.27-.25A.48.48,0,0,1,70.36,9a.8.8,0,0,1,.91-.07,2.43,2.43,0,0,0,.65.25,2.63,2.63,0,0,1,.69.3.72.72,0,0,0,.78-.17l.68-.78a1.63,1.63,0,0,1,.3-.34.48.48,0,0,1,.58,0,1,1,0,0,1,.31.35c0,.11.13.19.19.3.16.29,0,.5-.2.71a3.4,3.4,0,0,1-.59.4.81.81,0,0,0-.27.73.51.51,0,0,0,.28.31,2.63,2.63,0,0,1,.41.27,4.68,4.68,0,0,1,.37.29,1.25,1.25,0,0,1,.44.85c0,.3-.12.42-.4.49a.75.75,0,0,1-.59-.17,8.42,8.42,0,0,1-.77-.69c-.12-.1-.22-.22-.34-.32a.28.28,0,0,0-.47.11,2.8,2.8,0,0,0-.09.58,1.37,1.37,0,0,0,0,.35l.06.69c0,.33.13.64.18,1a1.14,1.14,0,0,0,.13.3,2.51,2.51,0,0,1,.16.46,2.43,2.43,0,0,0,.3.52c.1.16.16.35.25.52s.3.39.42.6a.55.55,0,0,1,.07.58.27.27,0,0,1-.31.14,3.68,3.68,0,0,0-.57-.06.67.67,0,0,1-.3-.13A4.21,4.21,0,0,1,73.14,17Z" fill="#231915"/><path d="M63.74,9.29a.46.46,0,0,0-.23,0,3.64,3.64,0,0,1-.57,0c-.21,0-.43-.07-.65-.1a5.11,5.11,0,0,1-.86-.2,1.15,1.15,0,0,1-.53-.31c-.14-.19-.12-.32.07-.45a.52.52,0,0,1,.35-.07A.62.62,0,0,0,61.78,8a.44.44,0,0,0,.2-.34.66.66,0,0,0-.4-.38l-.36-.08c-.16-.05-.19-.17-.09-.29s.29-.12.44-.13A.43.43,0,0,0,62,6.56.45.45,0,0,0,61.77,6a1.64,1.64,0,0,0-.3-.14s-.11,0-.11-.11a.17.17,0,0,1,.12-.16.85.85,0,0,1,.32-.09.42.42,0,0,0,.37-.37.56.56,0,0,0-.41-.52,2.08,2.08,0,0,0-.5-.07c-.2,0-.28-.15-.22-.34a.94.94,0,0,1,.09-.12,2.21,2.21,0,0,1,.63-.47,1.17,1.17,0,0,0,.33-.24c.14-.18,0-.47-.12-.6a.75.75,0,0,0-.87,0,1,1,0,0,1-.57.24A.51.51,0,0,1,60.21,3,.56.56,0,0,1,60,2.6a1,1,0,0,0-.28-.49.59.59,0,0,0-.8,0,6,6,0,0,0-.44.56,4.93,4.93,0,0,1-.4.61,2.14,2.14,0,0,1-.61.59.38.38,0,0,0-.18.34c0,.34,0,.37-.34.33h0a.46.46,0,0,1-.42-.33,3,3,0,0,1-.13-.52.75.75,0,0,0-.27-.48A1,1,0,0,0,55.68,3a.63.63,0,0,0-.48.13.4.4,0,0,0-.09.65c.06.08.14.14.2.22a.27.27,0,0,1,0,.31c-.05.11-.14.11-.23.12a3.9,3.9,0,0,1-.59,0,1,1,0,0,0-.78.25.48.48,0,0,0,.13.81.76.76,0,0,0,.47,0l.45-.08c.16,0,.27.08.21.23a.47.47,0,0,1-.26.32,2.19,2.19,0,0,0-.54.3,1.92,1.92,0,0,0-.18.22,1,1,0,0,1-.57.31.8.8,0,0,1-.59,0,.46.46,0,0,0-.47,0c-.14.09-.28.2-.27.39a.72.72,0,0,0,.24.44.69.69,0,0,0,.37.16,2.46,2.46,0,0,0,.66.06c.18,0,.29-.14.43-.24a.29.29,0,0,1,.45.1,1.18,1.18,0,0,1,.07.2.74.74,0,0,0,.43.47,2.91,2.91,0,0,0,.83.11l.21,0a1.78,1.78,0,0,0,.53-.19A1.61,1.61,0,0,0,57,7.72a.5.5,0,0,0,.09-.23A.94.94,0,0,1,57.39,7a.51.51,0,0,0,.08-.7.49.49,0,0,0-.59-.12,1.59,1.59,0,0,1-.43.16A.38.38,0,0,1,56,6.08a.59.59,0,0,1,.33-.69,1.09,1.09,0,0,1,.3-.07c.32,0,.55-.13.61-.51,0-.09.07-.2.19-.17a.47.47,0,0,1,.36.25,2,2,0,0,1,.1.32,1.75,1.75,0,0,1,0,.56c0,.27,0,.54,0,.81s-.09.62-.13.93c-.06.46-.14.92-.2,1.38a1,1,0,0,1-.19.48,1.27,1.27,0,0,0-.17.35,2.56,2.56,0,0,0,0,.47,1.1,1.1,0,0,0,.14.64A.39.39,0,0,0,58,11a1.21,1.21,0,0,0,.35-.43,2.57,2.57,0,0,1,.29-.44,1.1,1.1,0,0,0,.14-.18,1,1,0,0,1,.85-.49,1.57,1.57,0,0,1,.9.14l.61.2a2.14,2.14,0,0,1,.72.29,1.62,1.62,0,0,0,.32.17.61.61,0,0,0,.64,0c.19-.15.41-.24.6-.38s.29-.14.41-.24A.18.18,0,0,0,63.74,9.29ZM56,7a.24.24,0,0,1,.19.36.45.45,0,0,1-.41.22.2.2,0,0,1-.2-.13.27.27,0,0,1,0-.32A.45.45,0,0,1,56,7Zm3.6-1.09a.23.23,0,0,1-.26.17c-.13,0-.25-.11-.24-.22s.17-.2.3-.18A.24.24,0,0,1,59.61,5.86ZM58.72,4.5a.27.27,0,0,1-.07-.44,1.1,1.1,0,0,1,.47-.21c.08,0,.15-.06.22,0s.24.11.18.3A.63.63,0,0,1,58.72,4.5Zm.45,2.28a.27.27,0,0,1,.34.24.22.22,0,0,1-.28.22h-.06A.27.27,0,0,1,58.94,7C58.93,6.9,59,6.8,59.17,6.78Zm-.13,2c-.13,0-.28-.17-.26-.27s.24-.4.39-.34a.26.26,0,0,1,.21.32A.36.36,0,0,1,59,8.78Z" fill="#231915"/><path d="M87.63,20.58a1.33,1.33,0,0,0,.05.19,3.9,3.9,0,0,0,.17.48c.05.14.28.21.48.18s.19-.12.22-.29,0-.17.11-.2.07-.09,0-.15l-.27-.35-.23-.29c-.1-.13-.1-.13-.23,0l-.06,0A.42.42,0,0,0,87.63,20.58Z" fill="#231915"/><path d="M88.16,27c.07-.05.1-.1,0-.17a.18.18,0,0,1-.06-.13,1.29,1.29,0,0,0-.31-.9,2.94,2.94,0,0,1-.51-.8.43.43,0,0,1,.07-.41,1,1,0,0,1,.31-.23,5.06,5.06,0,0,1,.44-.26c.28-.15.58-.23.86-.35a1.35,1.35,0,0,1,.71-.14.6.6,0,0,0,.54-.39.19.19,0,0,1,.12-.15c.1,0,.06-.08,0-.13l-.26-.33c0-.05-.08-.06-.13,0a.17.17,0,0,1-.13.08,1.54,1.54,0,0,1-.75-.29,1.18,1.18,0,0,0-.32-.23.29.29,0,0,0-.29.07.18.18,0,0,0,0,.22,1.33,1.33,0,0,1,.05.19.15.15,0,0,1-.06.18.18.18,0,0,1-.2-.05.35.35,0,0,1-.11-.36.45.45,0,0,0-.06-.37,2.55,2.55,0,0,1-.25-.46.61.61,0,0,0-.21-.29,2.32,2.32,0,0,1-.62-.59.52.52,0,0,1-.08-.51.84.84,0,0,0,0-.64,5.86,5.86,0,0,1-.32-.86.66.66,0,0,0-.19-.37.43.43,0,0,0-.69.12,5.7,5.7,0,0,1-1.17,1.28c-.19.16-.37.31-.57.45a.38.38,0,0,1-.59-.08,1.18,1.18,0,0,0-.31-.32,1.29,1.29,0,0,0-.65-.27c-.11,0-.21,0-.32,0A1.65,1.65,0,0,0,81,20a.68.68,0,0,0-.27.49.41.41,0,0,0,.39.43,1.75,1.75,0,0,0,.81-.19.57.57,0,0,1,.68.05,1.62,1.62,0,0,0,.39.21l.24.14a3.9,3.9,0,0,1,.48.42,6.2,6.2,0,0,1,.44.45,2.79,2.79,0,0,0,.39.38,1.94,1.94,0,0,1,.48.42,2.77,2.77,0,0,0,.22.29,2.46,2.46,0,0,1,.34.56c0,.06.07.12,0,.2a.77.77,0,0,1-.13-.12c-.27-.34-.53-.68-.82-1a.8.8,0,0,0-.36-.27,2.29,2.29,0,0,1-.66-.29.75.75,0,0,0-.33-.1.29.29,0,0,0-.28.15.2.2,0,0,0,0,.26.74.74,0,0,0,.18.17,3.89,3.89,0,0,1,.63.43c.17.14.38.24.46.46s.1.2,0,.29-.16,0-.24,0-.14-.05-.21-.09c-.22-.1-.38-.09-.49.18,0,0,0,0,0,.06s-.09.09-.17.06a.81.81,0,0,1-.24-.21,6.79,6.79,0,0,0-.83-.78,1.47,1.47,0,0,0-.42-.28.28.28,0,0,0-.4.23,1.32,1.32,0,0,0,.08.52.46.46,0,0,0,.17.24c.12.1.26.15.38.24a6.05,6.05,0,0,1,.63.61.77.77,0,0,1,.15.16c.06.11.12.22,0,.34a.28.28,0,0,1-.31.09,6.4,6.4,0,0,1-.85-.26,1.62,1.62,0,0,1-.58-.27,2.65,2.65,0,0,0-.26-.21L80.26,24a4.18,4.18,0,0,1-.53-.5,3,3,0,0,1-.4-.54,2.14,2.14,0,0,0-.25-.41.34.34,0,0,0-.3-.13c-.12,0-.18.11-.21.22a1.68,1.68,0,0,1-.06.24,1,1,0,0,0,0,.68.7.7,0,0,0,.18.34l.21.2c.17.15.34.32.51.48s.32.28.47.43a1.87,1.87,0,0,0,.46.38,3.43,3.43,0,0,1,.58.28,1,1,0,0,0,.37.18,1.06,1.06,0,0,1,.3.1,2,2,0,0,0,1,.18c.29,0,.58-.07.87-.07a.49.49,0,0,1,.36.12,1.59,1.59,0,0,1,.3.5c.07.16.12.32.18.48a.63.63,0,0,0,.37.41l.27.08c.22.06.35-.07.31-.29a1.6,1.6,0,0,0-.12-.37,6.59,6.59,0,0,0-.58-1,2.06,2.06,0,0,1-.27-.46.22.22,0,0,1,.22-.32h.15a1.26,1.26,0,0,1,.59.2.35.35,0,0,0,.51-.34c0-.12,0-.24,0-.37a.77.77,0,0,1,0-.37c0-.1.1-.12.18-.05a1.55,1.55,0,0,1,.38.5c.1.22.24.43.36.64a1.28,1.28,0,0,1,.23.65.66.66,0,0,1-.15.48l-.23.22a.69.69,0,0,0,.22,1,.26.26,0,0,1,.12.11c0,.08.08.07.14,0l.08-.07Zm-2-7.08s0,.07,0,.1-.07,0-.1,0,0-.07,0-.1S86.18,19.89,86.21,19.93Zm-.67,2c-.12,0-.24,0-.36-.05a.83.83,0,0,1-.57-.43c0-.09-.16-.15-.17-.27s.06-.16.17-.12.2.16.33.19a.44.44,0,0,0,.23,0c.13,0,.19-.19.15-.35s-.11-.16-.15-.25a.16.16,0,0,1,0-.15.11.11,0,0,1,.14,0c.16.09.33.16.48.25A.3.3,0,0,1,86,21a2.56,2.56,0,0,1,0,.62C85.87,21.83,85.77,22,85.54,21.92Zm1-.32a.24.24,0,0,1,.28,0,.23.23,0,0,1,0,.28.19.19,0,0,1-.23-.06A.17.17,0,0,1,86.56,21.6Zm-.85,1.1a.16.16,0,0,1,0-.22c0-.05.17,0,.21.05a.18.18,0,0,1,0,.23C85.87,22.81,85.78,22.79,85.71,22.7Zm.89,1.19a.44.44,0,0,1-.23-.52.43.43,0,0,0,0-.25c-.08-.23,0-.37.21-.52a.86.86,0,0,1,.75-.13.42.42,0,0,1,.26.53.25.25,0,0,1-.34.16,1.33,1.33,0,0,0-.21-.09.36.36,0,0,0-.34.14c-.08.09,0,.18,0,.27a.83.83,0,0,1,.08.22.16.16,0,0,1-.07.18A.15.15,0,0,1,86.6,23.89Z" fill="#231915"/><path d="M34.24,10l-.1.05c-.18.14-.35.29-.54.41s-.44.26-.66.4a3.75,3.75,0,0,1-.41.19,3,3,0,0,1-.66.22c-.41.1-.75.35-1.15.49a1.88,1.88,0,0,1-.91.12c-.32,0-.47-.3-.56-.57a1.14,1.14,0,0,1,.07-.75,5.41,5.41,0,0,1,.4-.89.43.43,0,0,0,0-.46.48.48,0,0,0-.38-.25.94.94,0,0,0-.56.18c-.18.13-.34.29-.52.43s-.24.18-.35.28-.49.22-.65-.14A1.22,1.22,0,0,0,27,9.21.78.78,0,0,0,26.25,9a2,2,0,0,0-.53.16,1.37,1.37,0,0,0-.63.56.64.64,0,0,0,.16.76c.16.1.34.16.51.26s.24.32,0,.46-.65.54-1,.78a1.51,1.51,0,0,0-.56.73.52.52,0,0,0,.39.69,3.13,3.13,0,0,0,.81.06.62.62,0,0,1,.23,0,1,1,0,0,1,.54.33.4.4,0,0,1,0,.61,2.14,2.14,0,0,0-.2.32,1.66,1.66,0,0,1-.31.39,3.31,3.31,0,0,0-.6.69,1.35,1.35,0,0,1-.31.4,1.16,1.16,0,0,0-.44.8.61.61,0,0,0,.16.56,1.5,1.5,0,0,0,.44.26.44.44,0,0,0,.25,0,1,1,0,0,0,.66-.49,6.28,6.28,0,0,1,.27-.59,1.29,1.29,0,0,0,.18-.35.88.88,0,0,1,.12-.26,3.43,3.43,0,0,0,.39-.6,1.62,1.62,0,0,1,.37-.45,5.38,5.38,0,0,0,.47-.49,4,4,0,0,1,.58-.59c.13-.1.27-.18.41-.27a3.72,3.72,0,0,1,.57-.27c.27-.11.56-.18.83-.31a1.64,1.64,0,0,1,.69-.21,1.24,1.24,0,0,0,.27,0,2.11,2.11,0,0,1,.61-.1,1,1,0,0,0,.25,0c.2,0,.39-.11.59-.15a1.74,1.74,0,0,0,.84-.35c.09-.08.2-.13.29-.21a3,3,0,0,0,.4-.54,1.27,1.27,0,0,0,.2-.31c.11-.35.23-.7.32-1.06S34.42,9.87,34.24,10Zm-6,1.93a.81.81,0,0,1-.09.77l-.14.24a.38.38,0,0,1-.46.19,1.6,1.6,0,0,1-.42-.14.82.82,0,0,1-.46-.59c0-.17.1-.28.23-.37a2.45,2.45,0,0,1,.41-.31,1.26,1.26,0,0,1,.32-.18A.53.53,0,0,1,28.28,11.88Z" fill="#231915"/><path d="M49.7,3.08A.24.24,0,0,0,49.42,3c-.2,0-.39.1-.58.12-.44,0-.87.08-1.3.1l-1.32,0-.88.08a2.28,2.28,0,0,1-.64,0c-.24,0-.49-.11-.57-.4l-.06-.21A.92.92,0,0,0,43.5,2a1.79,1.79,0,0,0-.83-.09.41.41,0,0,0-.35.44,2.34,2.34,0,0,1,0,.26.73.73,0,0,1-.43.66,3.7,3.7,0,0,0-.54.24,2.38,2.38,0,0,1-.73.27,2.48,2.48,0,0,0-.71.24,3.86,3.86,0,0,1-1,.34,1,1,0,0,0-.59.35.67.67,0,0,0,.89,1l.21-.12a1.82,1.82,0,0,0,.45-.26A1.91,1.91,0,0,1,40.48,5c.14-.07.23-.21.37-.29a2.78,2.78,0,0,1,.9-.28,4.52,4.52,0,0,1,.53-.11c.27,0,.54-.11.81-.16s.4,0,.6-.06a3.44,3.44,0,0,1,.46,0c.24,0,.49,0,.74.06s.45,0,.68.07a8.55,8.55,0,0,0,1,.22,7.51,7.51,0,0,0,.84,0c.25-.05.53-.09.81-.16a1,1,0,0,0,.37-.13,7.46,7.46,0,0,0,1-.79A.34.34,0,0,0,49.7,3.08Z" fill="#231915"/><path d="M47,7.08a.77.77,0,0,0-.4-.16c-.44,0-.88.07-1.33.07s-.82.14-1.23.16a2.84,2.84,0,0,0-.51,0c-.32.06-.64.13-1,.17a1.36,1.36,0,0,0-.35.07,4.41,4.41,0,0,1-1,.17.81.81,0,0,0-.44.18.72.72,0,0,0-.18.24,1.42,1.42,0,0,1-.23.44,1.06,1.06,0,0,0-.16.73,3.73,3.73,0,0,1,0,.47,2.17,2.17,0,0,0,.09,1,.46.46,0,0,0,.4.32.43.43,0,0,0,.45-.32,1.43,1.43,0,0,0,0-.65,3.94,3.94,0,0,1-.08-.68,1,1,0,0,1,.4-.78,2.49,2.49,0,0,1,.71-.4A3.37,3.37,0,0,1,42.92,8c.25-.05.49-.12.75-.15.43-.06.88,0,1.42-.07a4.84,4.84,0,0,1,.57,0,.53.53,0,0,1,.45.13,1.13,1.13,0,0,1,.29.66,3.32,3.32,0,0,1,0,.63,1.52,1.52,0,0,0,.06.7c.14.38.34.62.75.57a.49.49,0,0,0,.43-.43,3.74,3.74,0,0,0,.08-.75c0-.27,0-.54,0-.8a1.6,1.6,0,0,0-.22-.77A1.25,1.25,0,0,0,47,7.08Z" fill="#231915"/><path d="M42.65,5.68A.94.94,0,0,1,43,5.57l.66-.16a.38.38,0,0,0,.25-.33.29.29,0,0,0-.28-.29c-.11,0-.22,0-.33,0a1.65,1.65,0,0,0-.7,0A5.32,5.32,0,0,1,41.38,5c-.19,0-.37.19-.35.33a.77.77,0,0,0,.28.48.57.57,0,0,1,.26.33,2.6,2.6,0,0,1,0,.26,1.27,1.27,0,0,0,0,.34c.08.22.29.35.44.3a5.64,5.64,0,0,1,.62-.21,8,8,0,0,1,.85-.18c.31,0,.62,0,.93,0a.85.85,0,0,0,.64-.41c.13-.23.24-.46.36-.69a1.19,1.19,0,0,0,.14-.4c0-.32-.12-.42-.38-.46a1.34,1.34,0,0,0-.49.05.54.54,0,0,0-.41.38c0,.11,0,.23,0,.34s0,.32-.2.41a1,1,0,0,1-.29.1,3.55,3.55,0,0,1-.47.08,1.62,1.62,0,0,1-.58.06c-.11,0-.21,0-.23-.17A.19.19,0,0,1,42.65,5.68Z" fill="#231915"/><path d="M45.14,8.27a1,1,0,0,0-.4.21.71.71,0,0,1-.56.14,2.51,2.51,0,0,0-.72-.06,3,3,0,0,0-.41.08,5.35,5.35,0,0,1-.69.17.57.57,0,0,0-.31.07.45.45,0,0,0-.11.6,5.59,5.59,0,0,1,.32.65c.06.21.1.43.17.64a.5.5,0,0,0,.21.33.69.69,0,0,0,.74-.09,1.39,1.39,0,0,1,.55-.22,1.32,1.32,0,0,1,.59.08.54.54,0,0,0,.56,0,1.13,1.13,0,0,0,.4-.88,1.52,1.52,0,0,1,.18-.78.7.7,0,0,0,.09-.51A.53.53,0,0,0,45.14,8.27Zm-.67,1.57a.87.87,0,0,1-.34.12l-.35,0a2,2,0,0,1-.43,0,.23.23,0,0,1-.2-.22.25.25,0,0,1,.16-.27,3.45,3.45,0,0,1,.84-.21.45.45,0,0,1,.37.16A.27.27,0,0,1,44.47,9.84Z" fill="#231915"/><path d="M18,16.68a.73.73,0,0,0-.61.54c-.05.23-.09.45-.15.67a.62.62,0,0,1-.2.31c-.13.1-.28.14-.41.23a6.7,6.7,0,0,1-.78.53,2.43,2.43,0,0,0-.7.61l-.43.5-.7.84c-.16.21-.33.41-.51.61a11.65,11.65,0,0,1-.83.89c-.17.15-.3.33-.45.49h0c-.16.18-.33.34-.47.53s-.31.44-.45.66a.77.77,0,0,0-.15.62,3,3,0,0,0,.19.5.4.4,0,0,0,.18.16,1.78,1.78,0,0,0,.68.2,1.6,1.6,0,0,1,.79.25c.31.2.63.38.94.59s.68.47,1,.73a2,2,0,0,0,.49.32,3.9,3.9,0,0,0,.46.12.78.78,0,0,0,1-.57c.12-.29.32-.54.46-.82A7.1,7.1,0,0,1,18.19,25c.22-.29.45-.57.69-.83s.28-.29.41-.43l.44-.46c.18-.17.35-.35.54-.51a1.72,1.72,0,0,1,.67-.38,2,2,0,0,0,.67-.36.76.76,0,0,0,.09-.9,3.1,3.1,0,0,0-.45-.51c-.14-.16-.31-.29-.46-.45s-.52-.55-.77-.83a3,3,0,0,1-.44-.64,4.79,4.79,0,0,0-.33-.58.93.93,0,0,1-.15-.37,1.91,1.91,0,0,0-.46-.88A.57.57,0,0,0,18,16.68Zm-2.3,3.83a.5.5,0,0,1,.3-.3.2.2,0,0,1,.21,0c.07.05.06.13.05.2a.3.3,0,0,1-.1.19.42.42,0,0,1-.3.13A.17.17,0,0,1,15.73,20.51Zm2.81-1.22a3,3,0,0,0,.46.65c.18.2.36.42.53.63a7.31,7.31,0,0,1,.52.84.49.49,0,0,1-.16.74,3.59,3.59,0,0,0-.36.32c-.28.25-.53.53-.8.79s-.39.46-.59.7-.21.24-.31.37-.24.31-.37.46c-.27.32-.52.67-.8,1a1.67,1.67,0,0,1-.38.37.73.73,0,0,1-.69,0L15.23,26a3.23,3.23,0,0,1-.62-.5A7.5,7.5,0,0,1,14,25a3.9,3.9,0,0,1-.48-.65l-.12-.15a.49.49,0,0,1-.12-.47,2.74,2.74,0,0,1,.38-.9c.16-.2.31-.4.47-.59a1.78,1.78,0,0,1,.29-.32l.12-.05c.16-.06.27,0,.24.22a.32.32,0,0,1-.1.21c-.11.12-.2.26-.31.39a1.71,1.71,0,0,0-.36.66c0,.2-.14.39-.17.59a.74.74,0,0,0,0,.21c0,.15.18.21.36.15a3.21,3.21,0,0,1,.33-.12.21.21,0,0,1,.26.13,1.18,1.18,0,0,1,0,.31.28.28,0,0,0,.39.25,2.31,2.31,0,0,0,.58-.4,2.13,2.13,0,0,0,.3-.3,1.59,1.59,0,0,0,.44-.85,1.61,1.61,0,0,0,.08-.38.53.53,0,0,0-.38-.52l-.06,0Q16,22.25,16,22.1a.34.34,0,0,1,.29-.27h.33a.37.37,0,0,1,.39.37.76.76,0,0,0,.08.39.27.27,0,0,0,.3.17c.14,0,.2-.11.26-.22a1.06,1.06,0,0,0,.06-.39.93.93,0,0,1,.48-.75.46.46,0,0,1,.2-.05,2.09,2.09,0,0,1,.25,0,.45.45,0,0,0,.42-.54.46.46,0,0,0-.49-.28.68.68,0,0,0-.25.14.48.48,0,0,1-.33.08c-.23,0-.36-.45-.2-.61a.71.71,0,0,0,.25-.4c0-.18-.05-.29-.23-.28l-.34,0c-.21,0-.32-.08-.25-.28a.75.75,0,0,1,.6-.54.44.44,0,0,1,.35.11A1.38,1.38,0,0,1,18.54,19.29ZM15.77,23.1a.22.22,0,0,1,0,.32.23.23,0,0,1-.28,0,.24.24,0,0,1,0-.31C15.6,23.05,15.7,23,15.77,23.1Z" fill="#231915"/><path d="M19.06,21.35a.32.32,0,0,0-.19.15A9.88,9.88,0,0,1,18,22.64a1.84,1.84,0,0,1-.17.22l-.37.34c-.33.34-.59.74-.88,1.1a4.57,4.57,0,0,1-.51.61l-.31.34a.27.27,0,0,0,0,.4.62.62,0,0,0,.22.1.37.37,0,0,0,.46-.2c0-.09.1-.16.14-.24a5.42,5.42,0,0,1,.59-.83l.68-.82c.24-.27.48-.55.75-.8s.49-.51.73-.76a1.33,1.33,0,0,0,.33-.72c0-.11,0-.15-.12-.15A1.48,1.48,0,0,0,19.06,21.35Z" fill="#231915"/><ellipse cx="40.62" cy="32.72" rx="9.24" ry="6.99" transform="translate(-7.75 13.21) rotate(-16.89)" fill="#fff"/><ellipse cx="33.12" cy="23.43" rx="3.47" ry="2.62" transform="translate(-5.38 10.63) rotate(-16.89)" fill="#fff"/><path d="M51.35,74.68c-7.21-4.92-5.92-13.75-1.89-18.2,6-6.59,19.9-6.61,26.37-.82-18.51-16.56-40.18-2.27-48,9.84-1,1.44-2.36,3.28-3.59,5.2a34,34,0,0,0,56.48-7.57,2.08,2.08,0,0,0,0-.25C73.44,74.41,64.1,80.07,51.35,74.68Z" fill="#888"/><ellipse cx="50.04" cy="48.54" rx="37.12" ry="37.16" fill="none" stroke="#888" stroke-miterlimit="10"/><path d="M54.21,27.56l0-.5A2.75,2.75,0,0,1,54.45,26a1.32,1.32,0,0,1,.65-.6,2.13,2.13,0,0,1,1-.22,1.77,1.77,0,0,1,1.29.46,1.57,1.57,0,0,1,.49,1.22,2.47,2.47,0,0,1-.2.92A8.29,8.29,0,0,1,57,29l-.89,1.34h1.54v1.22H54.15v-.41l2.11-3.23a2.51,2.51,0,0,0,.18-.43,1.74,1.74,0,0,0,.11-.51.73.73,0,0,0-.15-.48.54.54,0,0,0-.87.07,1.4,1.4,0,0,0-.17.74v.29Z" fill="#fff"/><path d="M60.49,25.14a1.54,1.54,0,0,1,1.31.72,4.6,4.6,0,0,1,.49,2.5,5.25,5.25,0,0,1-.45,2.47,1.5,1.5,0,0,1-1.4.82,1.56,1.56,0,0,1-1.31-.73,4.47,4.47,0,0,1-.51-2.48,4.6,4.6,0,0,1,.52-2.59,1.6,1.6,0,0,1,1.33-.71Zm0,1.22a.48.48,0,0,0-.38.24,4.64,4.64,0,0,0-.16,1.7,5.09,5.09,0,0,0,.17,1.86.48.48,0,0,0,.38.25c.21,0,.36-.14.43-.41A6.32,6.32,0,0,0,61,28.61v-.32a5.5,5.5,0,0,0-.14-1.58c-.09-.23-.22-.35-.4-.35Z" fill="#fff"/><path d="M65,25.14a1.52,1.52,0,0,1,1.31.72,4.59,4.59,0,0,1,.5,2.5,5.11,5.11,0,0,1-.46,2.47,1.49,1.49,0,0,1-1.4.82,1.56,1.56,0,0,1-1.31-.73,4.47,4.47,0,0,1-.51-2.48,4.59,4.59,0,0,1,.53-2.59,1.59,1.59,0,0,1,1.32-.71Zm0,1.22a.45.45,0,0,0-.37.24,4.54,4.54,0,0,0-.17,1.7,5.35,5.35,0,0,0,.17,1.86.5.5,0,0,0,.38.25c.22,0,.36-.14.43-.41a6.32,6.32,0,0,0,.11-1.39v-.32a5.64,5.64,0,0,0-.13-1.58c-.09-.23-.23-.35-.41-.35Z" fill="#fff"/><path d="M69.44,25.14a1.52,1.52,0,0,1,1.3.72,4.59,4.59,0,0,1,.5,2.5,5.11,5.11,0,0,1-.46,2.47,1.48,1.48,0,0,1-1.39.82,1.56,1.56,0,0,1-1.32-.73,4.58,4.58,0,0,1-.5-2.48,4.6,4.6,0,0,1,.52-2.59,1.6,1.6,0,0,1,1.33-.71Zm0,1.22a.47.47,0,0,0-.38.24,4.54,4.54,0,0,0-.17,1.7A5.35,5.35,0,0,0,69,30.16a.51.51,0,0,0,.39.25c.21,0,.35-.14.42-.41A5.74,5.74,0,0,0,70,28.61v-.32a5.64,5.64,0,0,0-.13-1.58c-.09-.23-.23-.35-.4-.35Z" fill="#fff"/></svg>